# 3ds Max Wavefront OBJ Exporter v0.97b - (c)2007 guruware
# File Created: 05.10.2019 21:09:27

mtllib DescriptionTing.mtl

#
# object Box095
#

v  -1079.5121 -0.9663 1130.0825
v  -1079.5121 -0.9663 1110.9097
v  -1062.2552 -0.9663 1110.9097
v  -1062.2552 -0.9663 1130.0825
v  -1079.5121 0.7034 1130.0825
v  -1062.2552 0.7034 1130.0825
v  -1062.2552 0.7034 1110.9097
v  -1079.5121 0.7034 1110.9097
# 8 vertices

vn -0.5774 -0.5774 0.5774
vn -0.5774 -0.5774 -0.5774
vn 0.5774 -0.5774 -0.5774
vn 0.5774 -0.5774 0.5774
vn -0.5774 0.5774 0.5774
vn 0.5774 0.5774 0.5774
vn 0.5774 0.5774 -0.5774
vn -0.5774 0.5774 -0.5774
# 8 vertex normals

vt 62.9146 0.0000 0.0000
vt 62.9146 69.9000 0.0000
vt 0.0000 69.9000 0.0000
vt 0.0000 0.0000 0.0000
vt 62.9146 7.7695 0.0000
vt 0.0000 7.7695 0.0000
vt 69.9000 0.0000 0.0000
vt 69.9000 7.7695 0.0000
# 8 texture coords

o Box095
g Box095
usemtl wire_088144225
s 2
f 1/1/1 2/2/2 3/3/3 4/4/4 
s 4
f 5/4/5 6/1/6 7/2/7 8/3/8 
s 8
f 1/4/1 4/1/4 6/5/6 5/6/5 
s 16
f 4/4/4 3/7/3 7/8/7 6/6/6 
s 32
f 3/4/3 2/1/2 8/5/8 7/6/7 
s 64
f 2/4/2 1/7/1 5/8/5 8/6/8 
# 6 polygons

#
# object Box096
#

v  -1071.6934 0.0725 1121.8149
v  -1071.6934 0.0725 1119.1772
v  -1070.0740 0.0725 1119.1772
v  -1070.0740 0.0725 1121.8149
v  -1071.6934 39.5933 1121.8149
v  -1070.0740 39.5933 1121.8149
v  -1070.0740 39.5933 1119.1772
v  -1071.6934 39.5933 1119.1772
# 8 vertices

vn -0.5774 -0.5774 0.5774
vn -0.5774 -0.5774 -0.5774
vn 0.5774 -0.5774 -0.5774
vn 0.5774 -0.5774 0.5774
vn -0.5774 0.5774 0.5774
vn 0.5774 0.5774 0.5774
vn 0.5774 0.5774 -0.5774
vn -0.5774 0.5774 -0.5774
# 8 vertex normals

vt 7.5356 0.0000 0.0000
vt 7.5356 12.2743 0.0000
vt 0.0000 12.2743 0.0000
vt 0.0000 0.0000 0.0000
vt 7.5356 183.9038 0.0000
vt 0.0000 183.9038 0.0000
vt 12.2743 0.0000 0.0000
vt 12.2743 183.9038 0.0000
# 8 texture coords

o Box096
g Box096
usemtl wire_088144225
s 2
f 9/9/9 10/10/10 11/11/11 12/12/12 
s 4
f 13/12/13 14/9/14 15/10/15 16/11/16 
s 8
f 9/12/9 12/9/12 14/13/14 13/14/13 
s 16
f 12/12/12 11/15/11 15/16/15 14/14/14 
s 32
f 11/12/11 10/9/10 16/13/16 15/14/15 
s 64
f 10/12/10 9/15/9 13/16/13 16/14/16 
# 6 polygons

#
# object Box097
#

v  -1078.9060 32.2395 1130.9756
v  -1078.9060 45.1142 1108.6760
v  -1062.8613 45.1142 1108.6760
v  -1062.8613 32.2395 1130.9756
v  -1078.9060 33.3402 1131.6111
v  -1062.8613 33.3402 1131.6111
v  -1062.8613 46.2148 1109.3115
v  -1078.9060 46.2148 1109.3115
# 8 vertices

vn -0.5774 -0.7887 0.2113
vn -0.5774 -0.2113 -0.7887
vn 0.5774 -0.2113 -0.7887
vn 0.5774 -0.7887 0.2113
vn -0.5774 0.2113 0.7887
vn 0.5774 0.2113 0.7887
vn 0.5774 0.7887 -0.2113
vn -0.5774 0.7887 -0.2113
# 8 vertex normals

vt 74.6613 0.0000 0.0000
vt 74.6613 119.8204 0.0000
vt 0.0000 119.8204 0.0000
vt 0.0000 0.0000 0.0000
vt 74.6613 5.9140 0.0000
vt 0.0000 5.9140 0.0000
vt 119.8204 0.0000 0.0000
vt 119.8204 5.9140 0.0000
# 8 texture coords

o Box097
g Box097
usemtl wire_088144225
s 2
f 17/17/17 18/18/18 19/19/19 20/20/20 
s 4
f 21/20/21 22/17/22 23/18/23 24/19/24 
s 8
f 17/20/17 20/17/20 22/21/22 21/22/21 
s 16
f 20/20/20 19/23/19 23/24/23 22/22/22 
s 32
f 19/20/19 18/17/18 24/21/24 23/22/23 
s 64
f 18/20/18 17/23/17 21/24/21 24/22/24 
# 6 polygons

#
# object Box098
#

v  -1076.4905 34.9444 1129.1018
v  -1076.4905 44.8439 1111.9553
v  -1065.2769 44.8439 1111.9553
v  -1065.2769 34.9444 1129.1018
v  -1076.4905 36.0532 1129.7419
v  -1065.2769 36.0532 1129.7419
v  -1065.2769 45.9527 1112.5955
v  -1076.4905 45.9527 1112.5955
# 8 vertices

vn -0.5774 -0.7887 0.2113
vn -0.5774 -0.2113 -0.7887
vn 0.5774 -0.2113 -0.7887
vn 0.5774 -0.7887 0.2113
vn -0.5774 0.2113 0.7887
vn 0.5774 0.2113 0.7887
vn 0.5774 0.7887 -0.2113
vn -0.5774 0.7887 -0.2113
# 8 vertex normals

vt 52.1814 0.0000 0.0000
vt 52.1814 92.1316 0.0000
vt 0.0000 92.1316 0.0000
vt 0.0000 0.0000 0.0000
vt 52.1814 5.9577 0.0000
vt 0.0000 5.9577 0.0000
vt 92.1316 0.0000 0.0000
vt 92.1316 5.9577 0.0000
# 8 texture coords

o Box098
g Box098
usemtl wire_088144225
s 2
f 25/25/25 26/26/26 27/27/27 28/28/28 
s 4
f 29/28/29 30/25/30 31/26/31 32/27/32 
s 8
f 25/28/25 28/25/28 30/29/30 29/30/29 
s 16
f 28/28/28 27/31/27 31/32/31 30/30/30 
s 32
f 27/28/27 26/25/26 32/29/32 31/30/31 
s 64
f 26/28/26 25/31/25 29/32/29 32/30/32 
# 6 polygons

